<svg width="58" height="70" viewBox="0 0 58 70" fill="none" xmlns="http://www.w3.org/2000/svg">
<mask id="mask0_2_41" style="mask-type:luminance" maskUnits="userSpaceOnUse" x="0" y="0" width="58" height="70">
<path d="M57.088 0.5H0.5V69.665H57.088V0.5Z" fill="white"/>
</mask>
<g mask="url(#mask0_2_41)">
<path d="M54.5161 0.5V19.615H22.5361C22.1501 19.6107 21.767 19.6828 21.4089 19.8274C21.0509 19.9719 20.725 20.1859 20.4501 20.457C20.2265 20.6784 20.044 20.9377 19.9111 21.223C20.2085 16.3809 22.0433 11.7601 25.1486 8.03294C28.2538 4.30578 32.4674 1.66679 37.1761 0.5H54.5161Z" fill="url(#paint0_linear_2_41)"/>
<path d="M37.7604 48.709C37.4966 53.5754 35.6809 58.2293 32.5794 61.9887C29.478 65.748 25.254 68.4151 20.5264 69.599H3.98242V50.488H35.0444C35.4396 50.4932 35.8319 50.4183 36.1974 50.268C36.547 50.1254 36.8643 49.9139 37.1304 49.646C37.398 49.3765 37.6118 49.0585 37.7604 48.709Z" fill="url(#paint1_linear_2_41)"/>
<path d="M57.0882 47.5601C57.1019 50.5081 56.5132 53.4278 55.3582 56.1401C55.1232 56.6861 54.8652 57.2241 54.5852 57.7481C54.5772 57.7701 54.5692 57.7781 54.5692 57.7931C54.5666 57.8044 54.5614 57.815 54.5542 57.8241C52.1782 62.3158 48.3296 65.8537 43.6542 67.8441C40.9359 69.0161 38.0043 69.6126 35.0442 69.5961H20.5332L20.7002 69.5511C25.3884 68.3376 29.5687 65.6635 32.6358 61.9159C35.703 58.1683 37.4977 53.5417 37.7602 48.7061V48.6981C38.0376 47.9764 38.0429 47.1784 37.7752 46.4531C37.7682 46.4381 37.7602 46.4151 37.7522 46.4001C37.6079 46.0514 37.3966 45.7344 37.1302 45.4671C36.8573 45.1938 36.5316 44.9788 36.173 44.8353C35.8144 44.6917 35.4303 44.6226 35.0442 44.6321H22.5362C21.9142 44.6321 21.2922 44.6101 20.6772 44.5491C20.6552 44.5491 20.6322 44.5411 20.6022 44.5411C18.3046 44.3592 16.0534 43.7955 13.9412 42.8731C8.68555 40.6107 4.50064 36.4147 2.2522 31.1531C1.95612 30.4752 1.69774 29.7815 1.47821 29.0751C0.821895 26.9602 0.492103 24.7575 0.500214 22.5431C0.487034 19.5884 1.08344 16.6628 2.2522 13.9491C4.51369 8.70359 8.69568 4.5216 13.9412 2.26011C15.4722 1.58979 17.08 1.11084 18.7282 0.83411C18.7892 0.81811 18.8342 0.811104 18.8642 0.803104C18.8793 0.799268 18.8947 0.79692 18.9102 0.796101C20.1084 0.595726 21.3213 0.495377 22.5362 0.496098H37.1762C32.4674 1.66289 28.2538 4.30188 25.1486 8.02904C22.0434 11.7562 20.2086 16.377 19.9112 21.2191C19.8792 21.2753 19.8514 21.3338 19.8282 21.3941C19.6784 21.757 19.6036 22.1465 19.6082 22.5391C19.6039 22.9502 19.681 23.358 19.8352 23.7391C19.8513 23.7815 19.8717 23.822 19.8962 23.8601C20.0269 24.1639 20.215 24.4396 20.4502 24.6721C20.724 24.9447 21.0497 25.1596 21.408 25.3042C21.7663 25.4489 22.1499 25.5202 22.5362 25.5141H35.0442C37.998 25.4984 40.9241 26.0843 43.6442 27.2361C48.9329 29.4594 53.1399 33.6664 55.3632 38.9551C55.657 39.6406 55.913 40.3416 56.1302 41.0551C56.7726 43.1634 57.0955 45.3561 57.0882 47.5601Z" fill="url(#paint2_linear_2_41)"/>
<g style="mix-blend-mode:multiply" opacity="0.16">
<path d="M37.76 48.709C37.4962 53.5754 35.6805 58.2293 32.5791 61.9887C29.4777 65.748 25.2536 68.4151 20.5261 69.599H15.9141C19.7843 67.7777 23.2009 65.1182 25.9163 61.8134C28.6318 58.5085 30.578 54.641 31.614 50.491H35.0421C35.4373 50.4962 35.8295 50.4213 36.195 50.271C36.5447 50.1284 36.862 49.9169 37.1281 49.649C37.3967 49.3788 37.6112 49.0597 37.76 48.709Z" fill="black"/>
</g>
<g style="mix-blend-mode:multiply" opacity="0.16">
<path d="M41.3331 0.5C37.0621 3.678 28.3922 11.013 26.2072 19.615H22.5361C22.1501 19.6107 21.767 19.6828 21.4089 19.8274C21.0509 19.9719 20.725 20.1859 20.4501 20.457C20.2265 20.6784 20.044 20.9377 19.9111 21.223C20.2085 16.3809 22.0433 11.7601 25.1486 8.03294C28.2538 4.30578 32.4674 1.66679 37.1761 0.5H41.3331Z" fill="black"/>
</g>
<g style="mix-blend-mode:multiply" opacity="0.25">
<path d="M54.5166 6.21899V19.619H27.8086C30.0306 19.399 32.2606 19.248 34.4836 19.141C36.7066 19.034 38.9366 18.941 41.1586 18.906C43.3886 18.838 45.6116 18.846 47.8416 18.823C49.8416 18.846 51.8236 18.846 53.8196 18.891C53.8416 18.019 53.8576 17.146 53.8946 16.267C53.9326 15.151 53.9706 14.036 54.0396 12.921C54.1496 10.687 54.2966 8.44899 54.5166 6.21899Z" fill="black"/>
</g>
<g style="mix-blend-mode:screen" opacity="0.7">
<path d="M57.0881 47.5602C57.1018 50.5081 56.5131 53.4278 55.3581 56.1402C55.1231 56.6862 54.8651 57.2242 54.5851 57.7482C54.6611 57.5432 54.9111 56.8901 55.2851 55.8891C55.8644 54.1869 56.2436 52.4231 56.4151 50.6332C56.5231 49.4477 56.5462 48.2559 56.4841 47.0671C56.408 45.7525 56.2254 44.4462 55.9381 43.1612C55.7893 42.4966 55.6044 41.8406 55.3841 41.1962C55.1261 40.5292 54.8681 39.8531 54.6101 39.1781C54.0312 37.8508 53.3195 36.5854 52.4861 35.4012C51.6742 34.2012 50.7354 33.0921 49.6861 32.0931C48.6753 31.1236 47.5785 30.248 46.4091 29.4771C45.2999 28.7568 44.1357 28.1252 42.9271 27.5882C41.8385 27.1197 40.7151 26.7366 39.5671 26.4421C37.8196 26.0088 36.0329 25.7522 34.2341 25.6762C32.9141 25.5762 32.1631 25.5172 32.1631 25.5172H35.0381C37.9919 25.5014 40.918 26.0873 43.6381 27.2392C48.9268 29.4625 53.1338 33.6695 55.3571 38.9581C55.6509 39.6436 55.9069 40.3447 56.1241 41.0582C56.7682 43.1652 57.0931 45.3568 57.0881 47.5602Z" fill="white"/>
</g>
<g style="mix-blend-mode:multiply" opacity="0.25">
<path d="M18.1364 69.596H3.98242V55.146C4.15642 56.352 4.2624 57.546 4.3764 58.757C4.4674 59.963 4.5514 61.169 4.6044 62.367C4.6804 63.573 4.69542 64.78 4.74042 65.986L4.77142 68.807C5.68842 68.822 6.60641 68.822 7.52441 68.845C8.70041 68.891 9.87642 68.906 11.0594 68.982C13.4184 69.096 15.7774 69.27 18.1364 69.596Z" fill="black"/>
</g>
<g style="mix-blend-mode:screen" opacity="0.7">
<path d="M20.6022 44.541C18.3046 44.3591 16.0534 43.7953 13.9412 42.873C8.68555 40.6106 4.50064 36.4146 2.2522 31.153C1.95612 30.4751 1.69774 29.7814 1.47821 29.075C0.821895 26.9601 0.492103 24.7574 0.500214 22.543C0.487034 19.5883 1.08344 16.6627 2.2522 13.949C4.51369 8.70346 8.69568 4.52147 13.9412 2.25998C15.4722 1.58966 17.08 1.11072 18.7282 0.833984C17.9014 1.03281 17.0859 1.27582 16.2852 1.56198C10.8533 3.50203 6.35914 7.42976 3.7092 12.553C1.95677 15.9172 1.13186 19.6874 1.31921 23.476C1.37798 25.3797 1.7076 27.2653 2.29819 29.076C2.47219 29.538 2.63921 30.001 2.80621 30.456L2.92722 30.797L2.95819 30.881C2.96518 30.8952 2.97024 30.9104 2.97321 30.926L3.04919 31.093L3.33719 31.738C3.72026 32.5729 4.15858 33.3814 4.6492 34.158C5.57932 35.6366 6.67653 37.0033 7.91919 38.231C9.04709 39.3299 10.2819 40.3134 11.6052 41.167C12.7349 41.8838 13.9196 42.5101 15.1482 43.04C16.1069 43.4477 17.0959 43.78 18.1062 44.034C18.9291 44.2449 19.7622 44.4141 20.6022 44.541Z" fill="white"/>
</g>
<g style="mix-blend-mode:screen" opacity="0.7">
<path d="M37.1761 0.5C32.4674 1.66679 28.2538 4.30578 25.1486 8.03294C22.0433 11.7601 20.2085 16.3809 19.9111 21.223C19.8791 21.2792 19.8513 21.3377 19.8281 21.398L19.8891 21.208C19.8661 20.608 19.8661 20.002 19.8661 19.395C19.9111 18.789 19.9791 18.182 20.0401 17.567C20.1401 16.967 20.2751 16.367 20.3891 15.767C20.5411 15.167 20.7461 14.591 20.9201 13.992C21.1201 13.408 21.3681 12.846 21.6101 12.27C21.8681 11.709 22.1721 11.17 22.4451 10.616C22.7631 10.078 23.1121 9.56999 23.4451 9.03899C23.8091 8.53899 24.1881 8.04499 24.5681 7.55899C24.9771 7.08899 25.4101 6.64199 25.8271 6.18599C26.2821 5.76199 26.7271 5.33699 27.2001 4.92699L28.6791 3.797C29.1951 3.456 29.7181 3.13699 30.2491 2.81099C30.8031 2.53799 31.3421 2.242 31.8951 1.976L33.6101 1.30899C34.2101 1.13399 34.7931 0.95999 35.3851 0.80899C35.9771 0.68899 36.5771 0.591 37.1761 0.5Z" fill="white"/>
</g>
<g style="mix-blend-mode:screen" opacity="0.7">
<path d="M37.8974 48.6981C37.9044 49.3201 37.9044 49.9271 37.8894 50.5411C37.8514 51.1561 37.7754 51.7631 37.7074 52.3771C37.6014 52.9838 37.4801 53.5908 37.3434 54.1981C37.1914 54.7981 36.9944 55.3891 36.8194 55.9801C36.6194 56.5721 36.3574 57.1331 36.1194 57.7101C35.8624 58.2791 35.5664 58.8251 35.2774 59.3791C34.9664 59.9171 34.6184 60.4331 34.2844 60.9641C33.9204 61.4721 33.5404 61.9641 33.1614 62.4581C32.7524 62.9291 32.3194 63.3841 31.9024 63.8461C31.4474 64.2791 31.0024 64.7041 30.5294 65.1211L29.0494 66.2591C28.5334 66.6004 28.0101 66.9337 27.4794 67.2591L25.8334 68.1161L24.1114 68.8061L22.3434 69.3221C21.8884 69.4131 21.4434 69.5041 20.9934 69.5801L21.0934 69.5951L20.5694 69.6561C20.5624 69.6641 20.5464 69.6641 20.5394 69.6641L20.5314 69.5951L20.5244 69.5271L20.6984 69.5501C25.3866 68.3366 29.5669 65.6625 32.6341 61.9148C35.7012 58.1672 37.4959 53.5407 37.7584 48.7051V48.6971C37.9056 48.3361 37.9778 47.9489 37.9704 47.5591C38.0254 47.9397 38.0005 48.3276 37.8974 48.6981Z" fill="white"/>
</g>
</g>
<defs>
<linearGradient id="paint0_linear_2_41" x1="54.5161" y1="10.8615" x2="21.3299" y2="10.8615" gradientUnits="userSpaceOnUse">
<stop stop-color="#EE0979"/>
<stop offset="0.322" stop-color="#F32555"/>
<stop offset="1" stop-color="#FF6A00"/>
</linearGradient>
<linearGradient id="paint1_linear_2_41" x1="2.66508" y1="59.154" x2="34.5515" y2="59.154" gradientUnits="userSpaceOnUse">
<stop stop-color="#EE0979"/>
<stop offset="0.322" stop-color="#F32555"/>
<stop offset="1" stop-color="#FF6A00"/>
</linearGradient>
<linearGradient id="paint2_linear_2_41" x1="28.7942" y1="-0.056709" x2="28.7942" y2="71.4621" gradientUnits="userSpaceOnUse">
<stop stop-color="#FCC400"/>
<stop offset="0.162" stop-color="#FBC000"/>
<stop offset="0.307" stop-color="#FBB500"/>
<stop offset="0.446" stop-color="#FBA300"/>
<stop offset="0.581" stop-color="#FA8900"/>
<stop offset="0.712" stop-color="#FA6800"/>
<stop offset="0.842" stop-color="#F93F00"/>
<stop offset="0.967" stop-color="#F81000"/>
<stop offset="1" stop-color="#F80300"/>
</linearGradient>
</defs>
</svg>
